<svg width="20" height="15" viewBox="0 0 20 15" fill="none" xmlns="http://www.w3.org/2000/svg">
<path d="M19 2.00405H6C5.4 2.00405 5 1.60405 5 1.00405C5 0.404052 5.4 0.00405168 6 0.00405168H19C19.6 0.00405168 20 0.404052 20 1.00405C20 1.60405 19.6 2.00405 19 2.00405Z" fill="white"/>
<path d="M19 8.00405H6C5.4 8.00405 5 7.60405 5 7.00405C5 6.40405 5.4 6.00405 6 6.00405H19C19.6 6.00405 20 6.40405 20 7.00405C20 7.60405 19.6 8.00405 19 8.00405Z" fill="white"/>
<path d="M19 14.0041H6C5.4 14.0041 5 13.6041 5 13.0041C5 12.4041 5.4 12.0041 6 12.0041H19C19.6 12.0041 20 12.4041 20 13.0041C20 13.6041 19.6 14.0041 19 14.0041Z" fill="white"/>
<path d="M1 2.00405C0.9 2.00405 0.9 2.00405 0.8 2.00405C0.7 2.00405 0.7 2.00405 0.6 1.90405C0.5 1.90405 0.5 1.80405 0.4 1.80405C0.3 1.80405 0.3 1.70405 0.3 1.70405C0.2 1.60405 0.0999999 1.50405 0.0999999 1.40405C-9.68575e-08 1.30405 0 1.10405 0 1.00405C0 0.904052 -9.68575e-08 0.704052 0.0999999 0.604052C0.2 0.504052 0.2 0.404052 0.3 0.304052C0.6 0.00405204 1 -0.0959482 1.4 0.104052C1.5 0.204052 1.6 0.204052 1.7 0.304052C1.9 0.504052 2 0.704052 2 1.00405C2 1.30405 1.9 1.50405 1.7 1.70405C1.5 1.90405 1.3 2.00405 1 2.00405Z" fill="white"/>
<path d="M1 8.00405C0.7 8.00405 0.5 7.90405 0.3 7.70405C0.0999999 7.50405 0 7.30405 0 7.00405C0 6.90405 0 6.90405 0 6.80405C0 6.70405 -9.68575e-08 6.70405 0.0999999 6.60405C0.0999999 6.50405 0.2 6.50405 0.2 6.40405C0.2 6.30405 0.3 6.30405 0.3 6.30405C0.4 6.20405 0.5 6.10405 0.6 6.10405C1 5.90405 1.4 6.00405 1.7 6.30405L1.8 6.40405C1.8 6.50405 1.9 6.50405 1.9 6.60405C1.9 6.70405 1.9 6.70405 2 6.80405C2 6.90405 2 6.90405 2 7.00405C2 7.30405 1.9 7.50405 1.7 7.70405C1.5 7.90405 1.3 8.00405 1 8.00405Z" fill="white"/>
<path d="M1 14.0041C0.7 14.0041 0.5 13.9041 0.3 13.7041C0.0999999 13.5041 0 13.3041 0 13.0041C0 12.9041 -9.68575e-08 12.7041 0.0999999 12.6041C0.2 12.5041 0.2 12.4041 0.3 12.3041C0.7 11.9041 1.3 11.9041 1.7 12.3041C1.9 12.5041 2 12.7041 2 13.0041C2 13.3041 1.9 13.5041 1.7 13.7041C1.5 13.9041 1.3 14.0041 1 14.0041Z" fill="white"/>
</svg>
