<svg width="20" height="20" viewBox="0 0 20 20" fill="none" xmlns="http://www.w3.org/2000/svg">
<path fill-rule="evenodd" clip-rule="evenodd" d="M10 1.81818C5.48131 1.81818 1.81818 5.48131 1.81818 10C1.81818 14.5187 5.48131 18.1818 10 18.1818C14.5187 18.1818 18.1818 14.5187 18.1818 10C18.1818 5.48131 14.5187 1.81818 10 1.81818ZM0 10C0 4.47715 4.47715 0 10 0C15.5228 0 20 4.47715 20 10C20 15.5228 15.5228 20 10 20C4.47715 20 0 15.5228 0 10Z" fill="white"/>
<path fill-rule="evenodd" clip-rule="evenodd" d="M8.1818 6.36363C8.68387 6.36363 9.09089 6.77065 9.09089 7.27272V12.7273C9.09089 13.2293 8.68387 13.6364 8.1818 13.6364C7.67972 13.6364 7.27271 13.2293 7.27271 12.7273V7.27272C7.27271 6.77065 7.67972 6.36363 8.1818 6.36363Z" fill="white"/>
<path fill-rule="evenodd" clip-rule="evenodd" d="M11.8182 6.36363C12.3203 6.36363 12.7273 6.77065 12.7273 7.27272V12.7273C12.7273 13.2293 12.3203 13.6364 11.8182 13.6364C11.3161 13.6364 10.9091 13.2293 10.9091 12.7273V7.27272C10.9091 6.77065 11.3161 6.36363 11.8182 6.36363Z" fill="white"/>
</svg>
