<?xml version="1.0" encoding="UTF-8"?><!DOCTYPE svg PUBLIC "-//W3C//DTD SVG 1.1//EN" "http://www.w3.org/Graphics/SVG/1.1/DTD/svg11.dtd"><svg xmlns="http://www.w3.org/2000/svg" xmlns:xlink="http://www.w3.org/1999/xlink" xmlns:sketch="http://www.bohemiancoding.com/sketch/ns"><symbol id="icon-back" viewBox="0 0 16 16">
<path fill-rule="evenodd" clip-rule="evenodd" d="M8.70711 1.70711C9.09763 1.31658 9.09763 0.683417 8.70711 0.292893C8.31658 -0.0976311 7.68342 -0.0976311 7.29289 0.292893L0.292893 7.29289C-0.0976311 7.68342 -0.0976311 8.31658 0.292893 8.70711L7.29289 15.7071C7.68342 16.0976 8.31658 16.0976 8.70711 15.7071C9.09763 15.3166 9.09763 14.6834 8.70711 14.2929L3.41421 9H15C15.5523 9 16 8.55229 16 8C16 7.44772 15.5523 7 15 7H3.41421L8.70711 1.70711Z"/>
</symbol><symbol id="icon-Ellipse" viewBox="0 0 42 42">
<circle cx="21" cy="21" r="18.5" stroke-width="5" stroke-miterlimit="16"/>
</symbol><symbol id="icon-facebook" viewBox="0 0 10 19">
    <!-- Generator: Sketch 3.3.3 (12072) - http://www.bohemiancoding.com/sketch -->
    <title>facebook</title>
    <desc>Created with Sketch.</desc>
    
    <g id="Page-1" stroke-width="1" fill-rule="evenodd" sketch:type="MSPage">
        <path d="M9.76616526,0.156928571 L9.76616526,3.10335714 L8.01393311,3.10335714 C7.37405216,3.10335714 6.94250454,3.23728571 6.71929026,3.50514286 C6.49607597,3.773 6.38446883,4.17478571 6.38446883,4.7105 L6.38446883,6.819875 L9.65455811,6.819875 L9.21929026,10.1234464 L6.38446883,10.1234464 L6.38446883,18.5944286 L2.96929026,18.5944286 L2.96929026,10.1234464 L0.123308113,10.1234464 L0.123308113,6.819875 L2.96929026,6.819875 L2.96929026,4.38683929 C2.96929026,3.00291071 3.35619502,1.92962202 4.13000454,1.16697321 C4.90381407,0.404324405 5.93432002,0.023 7.2215224,0.023 C8.3152724,0.023 9.16348668,0.0676428571 9.76616526,0.156928571 L9.76616526,0.156928571 Z" id="facebook" sketch:type="MSShapeGroup"/>
    </g>
</symbol><symbol id="icon-hide" viewBox="0 0 20 20">
<path d="M10 17.5C3.75 17.5 0.25 10.6667 0.0833333 10.3333C-1.24176e-08 10.0833 -1.24176e-08 9.83333 0.0833333 9.58333C1.16667 7.58333 2.66667 5.83333 4.58333 4.41667C4.91667 4.08333 5.41667 4.16667 5.75 4.58333C6 4.91667 6 5.5 5.58333 5.75C4 6.91667 2.75 8.33333 1.75 10C2.5 11.3333 5.5 15.8333 10 15.8333C11.5833 15.8333 13.1667 15.25 14.4167 14.25C14.75 14 15.3333 14.0833 15.5833 14.4167C15.8333 14.75 15.75 15.3333 15.4167 15.5833C13.9167 16.8333 12 17.5 10 17.5ZM17.3333 13.5C17.1667 13.5 16.9167 13.4167 16.8333 13.3333C16.5 13 16.4167 12.5 16.75 12.1667C17.3333 11.5 17.8333 10.8333 18.25 10.0833C17.5 8.75 14.5 4.25 10 4.25C9.5 4.25 8.91667 4.33333 8.41667 4.41667C8 4.41667 7.58333 4.16667 7.41667 3.75C7.25 3.33333 7.58333 2.83333 8 2.75C8.66667 2.58333 9.33333 2.5 10 2.5C16.25 2.5 19.75 9.33333 19.9167 9.66667C20 9.91667 20 10.1667 19.9167 10.4167C19.4167 11.4167 18.75 12.3333 18 13.25C17.8333 13.4167 17.5833 13.5 17.3333 13.5ZM9.91667 13.4167C9.08333 13.4167 8.25 13.0833 7.66667 12.5C7 11.9167 6.66667 11.0833 6.58333 10.1667C6.58333 9.25 6.83333 8.41667 7.5 7.75C7.58333 7.66667 7.58333 7.66667 7.66667 7.58333C8 7.25 8.5 7.25 8.83333 7.58333C9.16667 7.91667 9.16667 8.41667 8.83333 8.75L8.75 8.83333C8.41667 9.16667 8.25 9.58333 8.33333 10C8.33333 10.4167 8.5 10.8333 8.83333 11.1667C9.5 11.8333 10.5833 11.75 11.1667 11.0833C11.5 10.75 12 10.75 12.3333 11.0833C12.6667 11.4167 12.6667 11.9167 12.3333 12.25C11.75 13 10.8333 13.4167 9.91667 13.4167Z"/>
<path d="M19.1667 20C18.9167 20 18.75 19.9167 18.5833 19.75L0.25 1.41667C-0.0833333 1.08333 -0.0833333 0.583333 0.25 0.25C0.583333 -0.0833333 1.08333 -0.0833333 1.41667 0.25L19.75 18.5833C20.0833 18.9167 20.0833 19.4167 19.75 19.75C19.5833 19.9167 19.4167 20 19.1667 20Z"/>
</symbol><symbol id="icon-list" viewBox="0 0 20 15">
<path d="M19 2.00405H6C5.4 2.00405 5 1.60405 5 1.00405C5 0.404052 5.4 0.00405168 6 0.00405168H19C19.6 0.00405168 20 0.404052 20 1.00405C20 1.60405 19.6 2.00405 19 2.00405Z"/>
<path d="M19 8.00405H6C5.4 8.00405 5 7.60405 5 7.00405C5 6.40405 5.4 6.00405 6 6.00405H19C19.6 6.00405 20 6.40405 20 7.00405C20 7.60405 19.6 8.00405 19 8.00405Z"/>
<path d="M19 14.0041H6C5.4 14.0041 5 13.6041 5 13.0041C5 12.4041 5.4 12.0041 6 12.0041H19C19.6 12.0041 20 12.4041 20 13.0041C20 13.6041 19.6 14.0041 19 14.0041Z"/>
<path d="M1 2.00405C0.9 2.00405 0.9 2.00405 0.8 2.00405C0.7 2.00405 0.7 2.00405 0.6 1.90405C0.5 1.90405 0.5 1.80405 0.4 1.80405C0.3 1.80405 0.3 1.70405 0.3 1.70405C0.2 1.60405 0.0999999 1.50405 0.0999999 1.40405C-9.68575e-08 1.30405 0 1.10405 0 1.00405C0 0.904052 -9.68575e-08 0.704052 0.0999999 0.604052C0.2 0.504052 0.2 0.404052 0.3 0.304052C0.6 0.00405204 1 -0.0959482 1.4 0.104052C1.5 0.204052 1.6 0.204052 1.7 0.304052C1.9 0.504052 2 0.704052 2 1.00405C2 1.30405 1.9 1.50405 1.7 1.70405C1.5 1.90405 1.3 2.00405 1 2.00405Z"/>
<path d="M1 8.00405C0.7 8.00405 0.5 7.90405 0.3 7.70405C0.0999999 7.50405 0 7.30405 0 7.00405C0 6.90405 0 6.90405 0 6.80405C0 6.70405 -9.68575e-08 6.70405 0.0999999 6.60405C0.0999999 6.50405 0.2 6.50405 0.2 6.40405C0.2 6.30405 0.3 6.30405 0.3 6.30405C0.4 6.20405 0.5 6.10405 0.6 6.10405C1 5.90405 1.4 6.00405 1.7 6.30405L1.8 6.40405C1.8 6.50405 1.9 6.50405 1.9 6.60405C1.9 6.70405 1.9 6.70405 2 6.80405C2 6.90405 2 6.90405 2 7.00405C2 7.30405 1.9 7.50405 1.7 7.70405C1.5 7.90405 1.3 8.00405 1 8.00405Z"/>
<path d="M1 14.0041C0.7 14.0041 0.5 13.9041 0.3 13.7041C0.0999999 13.5041 0 13.3041 0 13.0041C0 12.9041 -9.68575e-08 12.7041 0.0999999 12.6041C0.2 12.5041 0.2 12.4041 0.3 12.3041C0.7 11.9041 1.3 11.9041 1.7 12.3041C1.9 12.5041 2 12.7041 2 13.0041C2 13.3041 1.9 13.5041 1.7 13.7041C1.5 13.9041 1.3 14.0041 1 14.0041Z"/>
</symbol><symbol id="icon-pause" viewBox="0 0 20 20">
<path fill-rule="evenodd" clip-rule="evenodd" d="M10 1.81818C5.48131 1.81818 1.81818 5.48131 1.81818 10C1.81818 14.5187 5.48131 18.1818 10 18.1818C14.5187 18.1818 18.1818 14.5187 18.1818 10C18.1818 5.48131 14.5187 1.81818 10 1.81818ZM0 10C0 4.47715 4.47715 0 10 0C15.5228 0 20 4.47715 20 10C20 15.5228 15.5228 20 10 20C4.47715 20 0 15.5228 0 10Z"/>
<path fill-rule="evenodd" clip-rule="evenodd" d="M8.1818 6.36363C8.68387 6.36363 9.09089 6.77065 9.09089 7.27272V12.7273C9.09089 13.2293 8.68387 13.6364 8.1818 13.6364C7.67972 13.6364 7.27271 13.2293 7.27271 12.7273V7.27272C7.27271 6.77065 7.67972 6.36363 8.1818 6.36363Z"/>
<path fill-rule="evenodd" clip-rule="evenodd" d="M11.8182 6.36363C12.3203 6.36363 12.7273 6.77065 12.7273 7.27272V12.7273C12.7273 13.2293 12.3203 13.6364 11.8182 13.6364C11.3161 13.6364 10.9091 13.2293 10.9091 12.7273V7.27272C10.9091 6.77065 11.3161 6.36363 11.8182 6.36363Z"/>
</symbol><symbol id="icon-photo" viewBox="0 0 24 20">
<path fill-rule="evenodd" clip-rule="evenodd" d="M8.16795 0.4453C8.35342 0.167101 8.66565 0 9 0H15C15.3344 0 15.6466 0.167101 15.8321 0.4453L17.5352 3H21C21.7957 3 22.5587 3.31607 23.1213 3.87868C23.6839 4.44129 24 5.20435 24 6V17C24 17.7957 23.6839 18.5587 23.1213 19.1213C22.5587 19.6839 21.7957 20 21 20H3C2.20435 20 1.44129 19.6839 0.87868 19.1213C0.316071 18.5587 0 17.7957 0 17V6C0 5.20435 0.316071 4.44129 0.87868 3.87868C1.44129 3.31607 2.20435 3 3 3H6.46482L8.16795 0.4453ZM9.53518 2L7.83205 4.5547C7.64658 4.8329 7.33435 5 7 5H3C2.73478 5 2.48043 5.10536 2.29289 5.29289C2.10536 5.48043 2 5.73478 2 6V17C2 17.2652 2.10536 17.5196 2.29289 17.7071C2.48043 17.8946 2.73478 18 3 18H21C21.2652 18 21.5196 17.8946 21.7071 17.7071C21.8946 17.5196 22 17.2652 22 17V6C22 5.73478 21.8946 5.48043 21.7071 5.29289C21.5196 5.10536 21.2652 5 21 5H17C16.6656 5 16.3534 4.8329 16.1679 4.5547L14.4648 2H9.53518Z"/>
<path fill-rule="evenodd" clip-rule="evenodd" d="M12 8C10.3431 8 9 9.34315 9 11C9 12.6569 10.3431 14 12 14C13.6569 14 15 12.6569 15 11C15 9.34315 13.6569 8 12 8ZM7 11C7 8.23858 9.23858 6 12 6C14.7614 6 17 8.23858 17 11C17 13.7614 14.7614 16 12 16C9.23858 16 7 13.7614 7 11Z"/>
</symbol></svg>